<svg xmlns="http://www.w3.org/2000/svg" viewBox="0 0 192 192" width="192" height="192">
  <rect width="192" height="192" rx="32" fill="#1a3a2a"/>
  <g transform="translate(96,88)">
    <!-- Book shape -->
    <path d="M-40,30 L-40,-30 Q-40,-38 -32,-38 L-5,-38 L-5,30 Z" fill="#f9f5ed" opacity="0.95"/>
    <path d="M40,30 L40,-30 Q40,-38 32,-38 L5,-38 L5,30 Z" fill="#f9f5ed" opacity="0.85"/>
    <!-- Spine -->
    <rect x="-5" y="-38" width="10" height="68" fill="#d4af5a" rx="1"/>
    <!-- Cross on cover -->
    <rect x="-2" y="-28" width="4" height="20" fill="#1a3a2a" rx="1"/>
    <rect x="-7" y="-22" width="14" height="4" fill="#1a3a2a" rx="1"/>
    <!-- Page lines -->
    <line x1="-34" y1="-24" x2="-10" y2="-24" stroke="#c4b090" stroke-width="1.5" opacity="0.5"/>
    <line x1="-34" y1="-16" x2="-10" y2="-16" stroke="#c4b090" stroke-width="1.5" opacity="0.5"/>
    <line x1="-34" y1="-8" x2="-10" y2="-8" stroke="#c4b090" stroke-width="1.5" opacity="0.5"/>
    <line x1="10" y1="-24" x2="34" y2="-24" stroke="#c4b090" stroke-width="1.5" opacity="0.4"/>
    <line x1="10" y1="-16" x2="34" y2="-16" stroke="#c4b090" stroke-width="1.5" opacity="0.4"/>
    <line x1="10" y1="-8" x2="34" y2="-8" stroke="#c4b090" stroke-width="1.5" opacity="0.4"/>
  </g>
  <!-- Text -->
  <text x="96" y="148" text-anchor="middle" font-family="Georgia,serif" font-size="22" font-weight="bold" fill="#b8963e">BIBLIA</text>
  <text x="96" y="172" text-anchor="middle" font-family="Georgia,serif" font-size="20" font-weight="bold" fill="#d4af5a">52</text>
</svg>
